<svg width="76" height="76" viewBox="0 0 76 76" fill="none" xmlns="http://www.w3.org/2000/svg">
<path d="M1.23032 71.941C0.449269 72.7221 0.449269 73.9884 1.23032 74.7694C2.01137 75.5505 3.2777 75.5505 4.05874 74.7694L1.23032 71.941ZM75.3552 2.64455C75.3552 1.53998 74.4598 0.644548 73.3552 0.644548H55.3552C54.2506 0.644548 53.3552 1.53998 53.3552 2.64455C53.3552 3.74912 54.2506 4.64455 55.3552 4.64455L71.3552 4.64455L71.3552 20.6445C71.3552 21.7491 72.2506 22.6445 73.3552 22.6445C74.4598 22.6445 75.3552 21.7491 75.3552 20.6445V2.64455ZM4.05874 74.7694L74.7694 4.05876L71.941 1.23033L1.23032 71.941L4.05874 74.7694Z" fill="#004FFF"/>
</svg>
