<svg width="117" height="112" viewBox="0 0 117 112" fill="none" xmlns="http://www.w3.org/2000/svg">
<path d="M110.208 42.2299L109.011 43.5213L110.14 44.8719C111.302 46.2616 112 48.0468 112 50C112 54.4183 108.418 58 104 58C102.455 58 101.019 57.5642 99.7993 56.8099L98.3915 55.9389L97.2728 57.1593C93.9794 60.7519 89.2541 63 84 63H82V65C82 69.4183 78.418 73 74 73C72.0203 73 70.2134 72.2835 68.8165 71.0935L67.2594 69.7671L65.9683 71.3535C62.6648 75.4125 57.6356 78 52 78C47.9451 78 44.2095 76.6619 41.2011 74.4023L40 73.5002L38.7989 74.4023C35.7905 76.6619 32.0549 78 28 78C18.3677 78 10.5009 70.4328 10.0229 60.9204L9.97574 59.9825L9.22406 59.4198C4.83463 56.1334 2 50.8979 2 45C2 42.6094 2.46528 40.3324 3.30799 38.2504L3.61172 37.5L3.30799 36.7496C2.46528 34.6676 2 32.3906 2 30C2 20.0589 10.0587 12 20 12C22.8381 12 25.5175 12.6555 27.9003 13.8214L29.2938 14.5033L30.3008 13.323C33.6049 9.4504 38.5151 7 44 7C46.8381 7 49.5175 7.65546 51.9003 8.82137L53.2938 9.50325L54.3008 8.32302C57.6049 4.4504 62.5151 2 68 2C71.2817 2 74.3534 2.87648 76.9985 4.40671L78 4.98611L79.0015 4.40671C81.6466 2.87648 84.7183 2 88 2C95.5159 2 101.961 6.60722 104.655 13.1591L104.926 13.8182L105.553 14.1574C111.183 17.204 115 23.1578 115 30C115 34.7232 113.183 39.0176 110.208 42.2299ZM52 90C52 94.4183 48.418 98 44 98C39.582 98 36 94.4183 36 90C36 85.5817 39.582 82 44 82C48.418 82 52 85.5817 52 90ZM38 106C38 108.209 36.209 110 34 110C31.791 110 30 108.209 30 106C30 103.791 31.791 102 34 102C36.209 102 38 103.791 38 106Z" fill="#C2D5FF" stroke="#004FFF" stroke-width="4"/>
</svg>
