<svg width="272" height="308" viewBox="0 0 272 308" fill="none" xmlns="http://www.w3.org/2000/svg">
<mask id="mask0_202_2" style="mask-type:alpha" maskUnits="userSpaceOnUse" x="0" y="0" width="272" height="308">
<path d="M250 308H22C9.84974 308 0 298.15 0 286V22C0 9.84974 9.84974 0 22 0H170L272 102V286C272 298.15 262.15 308 250 308Z" fill="url(#paint0_linear_202_2)"/>
</mask>
<g mask="url(#mask0_202_2)">
<path d="M250 308H22C9.84974 308 0 298.15 0 286V22C0 9.84974 9.84974 0 22 0H170L272 102V286C272 298.15 262.15 308 250 308Z" fill="url(#paint1_linear_202_2)"/>
<g opacity="0.27" filter="url(#filter0_f_202_2)">
<rect x="48" y="149" width="178" height="84" fill="#0072A2" style="mix-blend-mode:darken"/>
</g>
<mask id="mask1_202_2" style="mask-type:alpha" maskUnits="userSpaceOnUse" x="0" y="0" width="272" height="308">
<path d="M250 308H22C9.84974 308 0 298.15 0 286V22C0 9.84974 9.84974 0 22 0H170L272 102V286C272 298.15 262.15 308 250 308Z" fill="url(#paint2_linear_202_2)"/>
</mask>
<g mask="url(#mask1_202_2)">
<ellipse opacity="0.05" cx="-14.5" cy="-12.5" rx="223.5" ry="214.5" fill="url(#paint3_linear_202_2)"/>
<ellipse opacity="0.07" cx="-14.5" cy="-12.5" rx="140.5" ry="134.5" fill="url(#paint4_linear_202_2)"/>
</g>
<g filter="url(#filter1_d_202_2)">
<path d="M272 102H192C179.85 102 170 92.1503 170 80V0L272 102Z" fill="url(#paint5_linear_202_2)"/>
</g>
<g opacity="0.11">
<line x1="73" y1="131" x2="199" y2="131" stroke="white" stroke-width="12"/>
<line x1="73" y1="161" x2="199" y2="161" stroke="white" stroke-width="12"/>
<line x1="73" y1="191" x2="199" y2="191" stroke="white" stroke-width="12"/>
<line x1="73" y1="221" x2="199" y2="221" stroke="white" stroke-width="12"/>
<line x1="73" y1="251" x2="199" y2="251" stroke="white" stroke-width="12"/>
</g>
<mask id="path-13-outside-1_202_2" maskUnits="userSpaceOnUse" x="17" y="158" width="242" height="61" fill="black">
<rect fill="white" x="17" y="158" width="242" height="61"/>
<path d="M23.2389 216C22.2383 216 21.3956 215.658 20.7109 214.973C20.0263 214.288 19.6839 213.446 19.6839 212.445V164.492C19.6839 163.491 20.0263 162.649 20.7109 161.964C21.3956 161.227 22.2383 160.858 23.2389 160.858H39.1179C45.1219 160.858 50.2043 162.201 54.3649 164.887C58.5783 167.52 61.7383 170.944 63.8449 175.157C65.9516 179.37 67.0049 183.794 67.0049 188.429C67.0049 193.064 65.9516 197.488 63.8449 201.701C61.7383 205.914 58.5783 209.364 54.3649 212.05C50.2043 214.683 45.1219 216 39.1179 216H23.2389ZM38.2489 209.285C42.5676 209.285 46.3596 208.416 49.6249 206.678C52.8903 204.887 55.4183 202.438 57.2089 199.331C58.9996 196.171 59.8949 192.537 59.8949 188.429C59.8949 184.321 58.9996 180.713 57.2089 177.606C55.4183 174.446 52.8903 171.997 49.6249 170.259C46.3596 168.468 42.5676 167.573 38.2489 167.573H26.8729V209.285H38.2489ZM108.952 216.79C103.422 216.79 98.5767 215.579 94.4161 213.156C90.2554 210.733 87.0427 207.389 84.7781 203.123C82.5134 198.857 81.3284 193.959 81.2231 188.429C81.3284 182.899 82.5134 178.001 84.7781 173.735C87.0427 169.469 90.2554 166.125 94.4161 163.702C98.5767 161.279 103.422 160.068 108.952 160.068C114.482 160.068 119.301 161.279 123.409 163.702C127.57 166.125 130.782 169.495 133.047 173.814C135.364 178.08 136.576 182.952 136.681 188.429C136.576 193.906 135.364 198.804 133.047 203.123C130.782 207.389 127.57 210.733 123.409 213.156C119.301 215.579 114.482 216.79 108.952 216.79ZM108.952 210.075C113.165 210.075 116.826 209.127 119.933 207.231C123.04 205.335 125.41 202.754 127.043 199.489C128.676 196.224 129.492 192.537 129.492 188.429C129.492 184.321 128.676 180.634 127.043 177.369C125.41 174.104 123.04 171.523 119.933 169.627C116.826 167.731 113.165 166.783 108.952 166.783C104.686 166.783 100.999 167.731 97.8921 169.627C94.8374 171.523 92.4937 174.104 90.8611 177.369C89.2284 180.634 88.4121 184.321 88.4121 188.429C88.4121 192.537 89.2284 196.224 90.8611 199.489C92.4937 202.754 94.8374 205.335 97.8921 207.231C100.999 209.127 104.686 210.075 108.952 210.075ZM178.513 216.79C173.247 216.79 168.507 215.658 164.293 213.393C160.133 211.076 156.841 207.784 154.418 203.518C152.048 199.199 150.863 194.17 150.863 188.429C150.863 182.688 152.048 177.685 154.418 173.419C156.841 169.1 160.133 165.809 164.293 163.544C168.507 161.227 173.247 160.068 178.513 160.068C182.095 160.068 185.281 160.489 188.072 161.332C190.916 162.175 193.734 163.386 196.525 164.966C197.684 165.598 198.263 166.599 198.263 167.968C198.263 168.758 197.974 169.469 197.394 170.101C196.815 170.68 196.051 170.97 195.103 170.97C194.577 170.97 194.103 170.865 193.681 170.654C191.364 169.443 189.099 168.521 186.887 167.889C184.675 167.257 182.121 166.941 179.224 166.941C174.695 166.941 170.824 167.889 167.611 169.785C164.451 171.628 162.055 174.183 160.422 177.448C158.842 180.661 158.052 184.321 158.052 188.429C158.052 192.537 158.842 196.224 160.422 199.489C162.055 202.702 164.451 205.256 167.611 207.152C170.824 208.995 174.695 209.917 179.224 209.917C182.121 209.917 184.675 209.601 186.887 208.969C189.099 208.337 191.364 207.415 193.681 206.204C194.103 205.993 194.577 205.888 195.103 205.888C196.051 205.888 196.815 206.178 197.394 206.757C197.974 207.336 198.263 208.047 198.263 208.89C198.263 210.259 197.684 211.26 196.525 211.892C193.734 213.472 190.916 214.683 188.072 215.526C185.281 216.369 182.095 216.79 178.513 216.79ZM213.772 216.395C212.877 216.395 212.087 216.079 211.402 215.447C210.77 214.762 210.454 213.972 210.454 213.077C210.454 212.234 210.691 211.497 211.165 210.865L229.414 188.429L211.323 166.151C210.849 165.519 210.612 164.782 210.612 163.939C210.612 162.938 210.928 162.122 211.56 161.49C212.245 160.805 213.087 160.463 214.088 160.463C214.667 160.463 215.22 160.595 215.747 160.858C216.274 161.121 216.695 161.464 217.011 161.885L233.68 183.057L250.349 161.727C250.928 160.884 251.797 160.463 252.956 160.463C253.904 160.463 254.72 160.805 255.405 161.49C256.09 162.122 256.432 162.912 256.432 163.86C256.432 164.597 256.221 165.256 255.8 165.835L237.551 188.35L255.8 210.786C256.274 211.313 256.511 211.997 256.511 212.84C256.511 213.841 256.169 214.683 255.484 215.368C254.852 216.053 254.009 216.395 252.956 216.395C251.797 216.395 250.849 215.895 250.112 214.894L233.206 193.643L216.537 214.973C215.747 215.921 214.825 216.395 213.772 216.395Z"/>
</mask>
<path d="M23.2389 216C22.2383 216 21.3956 215.658 20.7109 214.973C20.0263 214.288 19.6839 213.446 19.6839 212.445V164.492C19.6839 163.491 20.0263 162.649 20.7109 161.964C21.3956 161.227 22.2383 160.858 23.2389 160.858H39.1179C45.1219 160.858 50.2043 162.201 54.3649 164.887C58.5783 167.52 61.7383 170.944 63.8449 175.157C65.9516 179.37 67.0049 183.794 67.0049 188.429C67.0049 193.064 65.9516 197.488 63.8449 201.701C61.7383 205.914 58.5783 209.364 54.3649 212.05C50.2043 214.683 45.1219 216 39.1179 216H23.2389ZM38.2489 209.285C42.5676 209.285 46.3596 208.416 49.6249 206.678C52.8903 204.887 55.4183 202.438 57.2089 199.331C58.9996 196.171 59.8949 192.537 59.8949 188.429C59.8949 184.321 58.9996 180.713 57.2089 177.606C55.4183 174.446 52.8903 171.997 49.6249 170.259C46.3596 168.468 42.5676 167.573 38.2489 167.573H26.8729V209.285H38.2489ZM108.952 216.79C103.422 216.79 98.5767 215.579 94.4161 213.156C90.2554 210.733 87.0427 207.389 84.7781 203.123C82.5134 198.857 81.3284 193.959 81.2231 188.429C81.3284 182.899 82.5134 178.001 84.7781 173.735C87.0427 169.469 90.2554 166.125 94.4161 163.702C98.5767 161.279 103.422 160.068 108.952 160.068C114.482 160.068 119.301 161.279 123.409 163.702C127.57 166.125 130.782 169.495 133.047 173.814C135.364 178.08 136.576 182.952 136.681 188.429C136.576 193.906 135.364 198.804 133.047 203.123C130.782 207.389 127.57 210.733 123.409 213.156C119.301 215.579 114.482 216.79 108.952 216.79ZM108.952 210.075C113.165 210.075 116.826 209.127 119.933 207.231C123.04 205.335 125.41 202.754 127.043 199.489C128.676 196.224 129.492 192.537 129.492 188.429C129.492 184.321 128.676 180.634 127.043 177.369C125.41 174.104 123.04 171.523 119.933 169.627C116.826 167.731 113.165 166.783 108.952 166.783C104.686 166.783 100.999 167.731 97.8921 169.627C94.8374 171.523 92.4937 174.104 90.8611 177.369C89.2284 180.634 88.4121 184.321 88.4121 188.429C88.4121 192.537 89.2284 196.224 90.8611 199.489C92.4937 202.754 94.8374 205.335 97.8921 207.231C100.999 209.127 104.686 210.075 108.952 210.075ZM178.513 216.79C173.247 216.79 168.507 215.658 164.293 213.393C160.133 211.076 156.841 207.784 154.418 203.518C152.048 199.199 150.863 194.17 150.863 188.429C150.863 182.688 152.048 177.685 154.418 173.419C156.841 169.1 160.133 165.809 164.293 163.544C168.507 161.227 173.247 160.068 178.513 160.068C182.095 160.068 185.281 160.489 188.072 161.332C190.916 162.175 193.734 163.386 196.525 164.966C197.684 165.598 198.263 166.599 198.263 167.968C198.263 168.758 197.974 169.469 197.394 170.101C196.815 170.68 196.051 170.97 195.103 170.97C194.577 170.97 194.103 170.865 193.681 170.654C191.364 169.443 189.099 168.521 186.887 167.889C184.675 167.257 182.121 166.941 179.224 166.941C174.695 166.941 170.824 167.889 167.611 169.785C164.451 171.628 162.055 174.183 160.422 177.448C158.842 180.661 158.052 184.321 158.052 188.429C158.052 192.537 158.842 196.224 160.422 199.489C162.055 202.702 164.451 205.256 167.611 207.152C170.824 208.995 174.695 209.917 179.224 209.917C182.121 209.917 184.675 209.601 186.887 208.969C189.099 208.337 191.364 207.415 193.681 206.204C194.103 205.993 194.577 205.888 195.103 205.888C196.051 205.888 196.815 206.178 197.394 206.757C197.974 207.336 198.263 208.047 198.263 208.89C198.263 210.259 197.684 211.26 196.525 211.892C193.734 213.472 190.916 214.683 188.072 215.526C185.281 216.369 182.095 216.79 178.513 216.79ZM213.772 216.395C212.877 216.395 212.087 216.079 211.402 215.447C210.77 214.762 210.454 213.972 210.454 213.077C210.454 212.234 210.691 211.497 211.165 210.865L229.414 188.429L211.323 166.151C210.849 165.519 210.612 164.782 210.612 163.939C210.612 162.938 210.928 162.122 211.56 161.49C212.245 160.805 213.087 160.463 214.088 160.463C214.667 160.463 215.22 160.595 215.747 160.858C216.274 161.121 216.695 161.464 217.011 161.885L233.68 183.057L250.349 161.727C250.928 160.884 251.797 160.463 252.956 160.463C253.904 160.463 254.72 160.805 255.405 161.49C256.09 162.122 256.432 162.912 256.432 163.86C256.432 164.597 256.221 165.256 255.8 165.835L237.551 188.35L255.8 210.786C256.274 211.313 256.511 211.997 256.511 212.84C256.511 213.841 256.169 214.683 255.484 215.368C254.852 216.053 254.009 216.395 252.956 216.395C251.797 216.395 250.849 215.895 250.112 214.894L233.206 193.643L216.537 214.973C215.747 215.921 214.825 216.395 213.772 216.395Z" fill="white"/>
<path d="M20.7109 214.973L22.1251 213.559H22.1251L20.7109 214.973ZM20.7109 161.964L22.1251 163.378L22.1513 163.352L22.1765 163.325L20.7109 161.964ZM54.3649 164.887L53.2802 166.567L53.2925 166.575L53.3049 166.583L54.3649 164.887ZM63.8449 175.157L62.0561 176.051L63.8449 175.157ZM63.8449 201.701L62.0561 200.807H62.0561L63.8449 201.701ZM54.3649 212.05L55.4345 213.74L55.44 213.736L54.3649 212.05ZM49.6249 206.678L50.5646 208.443L50.5756 208.438L50.5866 208.432L49.6249 206.678ZM57.2089 199.331L58.9418 200.33L58.9454 200.323L58.949 200.317L57.2089 199.331ZM57.2089 177.606L55.4689 178.592L55.4724 178.598L55.4761 178.605L57.2089 177.606ZM49.6249 170.259L48.6633 172.013L48.6742 172.019L48.6852 172.024L49.6249 170.259ZM26.8729 167.573V165.573H24.8729V167.573H26.8729ZM26.8729 209.285H24.8729V211.285H26.8729V209.285ZM23.2389 214C22.7488 214 22.4209 213.855 22.1251 213.559L19.2967 216.387C20.3702 217.461 21.7277 218 23.2389 218V214ZM22.1251 213.559C21.8293 213.263 21.6839 212.935 21.6839 212.445H17.6839C17.6839 213.956 18.2232 215.314 19.2967 216.387L22.1251 213.559ZM21.6839 212.445V164.492H17.6839V212.445H21.6839ZM21.6839 164.492C21.6839 164.002 21.8293 163.674 22.1251 163.378L19.2967 160.55C18.2232 161.623 17.6839 162.981 17.6839 164.492H21.6839ZM22.1765 163.325C22.4851 162.993 22.7979 162.858 23.2389 162.858V158.858C21.6786 158.858 20.306 159.461 19.2453 160.603L22.1765 163.325ZM23.2389 162.858H39.1179V158.858H23.2389V162.858ZM39.1179 162.858C44.8195 162.858 49.5057 164.131 53.2802 166.567L55.4497 163.207C50.9028 160.271 45.4243 158.858 39.1179 158.858V162.858ZM53.3049 166.583C57.224 169.032 60.1231 172.186 62.0561 176.051L65.6338 174.263C63.3534 169.702 59.9325 166.008 55.4249 163.191L53.3049 166.583ZM62.0561 176.051C64.0262 179.992 65.0049 184.11 65.0049 188.429H69.0049C69.0049 183.479 67.8769 178.749 65.6338 174.263L62.0561 176.051ZM65.0049 188.429C65.0049 192.748 64.0262 196.866 62.0561 200.807L65.6338 202.595C67.8769 198.109 69.0049 193.379 69.0049 188.429H65.0049ZM62.0561 200.807C60.1212 204.676 57.2172 207.86 53.2898 210.364L55.44 213.736C59.9393 210.868 63.3553 207.152 65.6338 202.595L62.0561 200.807ZM53.2953 210.36C49.5185 212.75 44.8267 214 39.1179 214V218C45.4172 218 50.89 216.616 55.4345 213.74L53.2953 210.36ZM39.1179 214H23.2389V218H39.1179V214ZM38.2489 211.285C42.8403 211.285 46.965 210.359 50.5646 208.443L48.6852 204.913C45.7542 206.473 42.2949 207.285 38.2489 207.285V211.285ZM50.5866 208.432C54.1604 206.472 56.9609 203.767 58.9418 200.33L55.4761 198.332C53.8756 201.11 51.6201 203.303 48.6633 204.924L50.5866 208.432ZM58.949 200.317C60.9314 196.819 61.8949 192.837 61.8949 188.429H57.8949C57.8949 192.237 57.0678 195.523 55.4689 198.345L58.949 200.317ZM61.8949 188.429C61.8949 184.022 60.9316 180.06 58.9418 176.607L55.4761 178.605C57.0676 181.366 57.8949 184.62 57.8949 188.429H61.8949ZM58.949 176.62C56.9674 173.123 54.1588 170.407 50.5646 168.494L48.6852 172.024C51.6217 173.587 53.8692 175.769 55.4689 178.592L58.949 176.62ZM50.5866 168.505C46.9825 166.529 42.8497 165.573 38.2489 165.573V169.573C42.2855 169.573 45.7367 170.408 48.6633 172.013L50.5866 168.505ZM38.2489 165.573H26.8729V169.573H38.2489V165.573ZM24.8729 167.573V209.285H28.8729V167.573H24.8729ZM26.8729 211.285H38.2489V207.285H26.8729V211.285ZM94.4161 213.156L95.4224 211.428L94.4161 213.156ZM84.7781 203.123L83.0116 204.061L84.7781 203.123ZM81.2231 188.429L79.2234 188.391L79.2227 188.429L79.2234 188.467L81.2231 188.429ZM84.7781 173.735L86.5446 174.673L84.7781 173.735ZM94.4161 163.702L93.4097 161.974H93.4097L94.4161 163.702ZM123.409 163.702L122.393 165.425L122.403 165.43L123.409 163.702ZM133.047 173.814L131.276 174.743L131.283 174.756L131.29 174.769L133.047 173.814ZM136.681 188.429L138.681 188.467L138.681 188.429L138.681 188.391L136.681 188.429ZM133.047 203.123L131.285 202.177L131.281 202.185L133.047 203.123ZM123.409 213.156L122.403 211.428L122.393 211.433L123.409 213.156ZM119.933 207.231L118.891 205.524L119.933 207.231ZM127.043 199.489L128.832 200.383L127.043 199.489ZM127.043 177.369L128.832 176.475L127.043 177.369ZM119.933 169.627L118.891 171.334L119.933 169.627ZM97.8921 169.627L96.8503 167.92L96.8438 167.924L96.8373 167.928L97.8921 169.627ZM90.8611 177.369L89.0722 176.475L90.8611 177.369ZM90.8611 199.489L89.0722 200.383L90.8611 199.489ZM97.8921 207.231L96.8373 208.93L96.8438 208.934L96.8503 208.938L97.8921 207.231ZM108.952 214.79C103.722 214.79 99.2346 213.647 95.4224 211.428L93.4097 214.884C97.9189 217.51 103.122 218.79 108.952 218.79V214.79ZM95.4224 211.428C91.585 209.193 88.6351 206.123 86.5446 202.185L83.0116 204.061C85.4504 208.655 88.9258 212.274 93.4097 214.884L95.4224 211.428ZM86.5446 202.185C84.4473 198.234 83.3229 193.653 83.2227 188.391L79.2234 188.467C79.3339 194.265 80.5795 199.48 83.0116 204.061L86.5446 202.185ZM83.2227 188.467C83.3229 183.205 84.4473 178.624 86.5446 174.673L83.0116 172.797C80.5795 177.378 79.3339 182.593 79.2234 188.391L83.2227 188.467ZM86.5446 174.673C88.6351 170.735 91.585 167.665 95.4224 165.43L93.4097 161.974C88.9258 164.584 85.4504 168.203 83.0116 172.797L86.5446 174.673ZM95.4224 165.43C99.2346 163.211 103.722 162.068 108.952 162.068V158.068C103.122 158.068 97.9189 159.348 93.4097 161.974L95.4224 165.43ZM108.952 162.068C114.182 162.068 118.639 163.211 122.393 165.425L124.425 161.979C119.963 159.348 114.782 158.068 108.952 158.068V162.068ZM122.403 165.43C126.234 167.661 129.183 170.753 131.276 174.743L134.818 172.885C132.381 168.238 128.906 164.588 124.415 161.974L122.403 165.43ZM131.29 174.769C133.435 178.719 134.581 183.269 134.681 188.467L138.681 188.391C138.57 182.634 137.294 177.441 134.805 172.859L131.29 174.769ZM134.681 188.391C134.581 193.589 133.435 198.17 131.285 202.177L134.809 204.069C137.294 199.439 138.57 194.224 138.681 188.467L134.681 188.391ZM131.281 202.185C129.19 206.123 126.24 209.193 122.403 211.428L124.415 214.884C128.899 212.274 132.375 208.655 134.814 204.061L131.281 202.185ZM122.393 211.433C118.639 213.647 114.182 214.79 108.952 214.79V218.79C114.782 218.79 119.963 217.51 124.425 214.879L122.393 211.433ZM108.952 212.075C113.474 212.075 117.507 211.054 120.975 208.938L118.891 205.524C116.144 207.2 112.857 208.075 108.952 208.075V212.075ZM120.975 208.938C124.404 206.846 127.032 203.983 128.832 200.383L125.254 198.595C123.789 201.525 121.677 203.824 118.891 205.524L120.975 208.938ZM128.832 200.383C130.62 196.807 131.492 192.808 131.492 188.429H127.492C127.492 192.266 126.731 195.64 125.254 198.595L128.832 200.383ZM131.492 188.429C131.492 184.05 130.62 180.051 128.832 176.475L125.254 178.263C126.731 181.218 127.492 184.592 127.492 188.429H131.492ZM128.832 176.475C127.032 172.875 124.404 170.012 120.975 167.92L118.891 171.334C121.677 173.034 123.789 175.333 125.254 178.263L128.832 176.475ZM120.975 167.92C117.507 165.804 113.474 164.783 108.952 164.783V168.783C112.857 168.783 116.144 169.658 118.891 171.334L120.975 167.92ZM108.952 164.783C104.383 164.783 100.322 165.801 96.8503 167.92L98.9338 171.334C101.677 169.661 104.99 168.783 108.952 168.783V164.783ZM96.8373 167.928C93.4631 170.022 90.8677 172.884 89.0722 176.475L92.6499 178.263C94.1198 175.324 96.2117 173.024 98.9468 171.326L96.8373 167.928ZM89.0722 176.475C87.2841 180.051 86.4121 184.05 86.4121 188.429H90.4121C90.4121 184.592 91.1727 181.218 92.6499 178.263L89.0722 176.475ZM86.4121 188.429C86.4121 192.808 87.2841 196.807 89.0722 200.383L92.6499 198.595C91.1727 195.64 90.4121 192.266 90.4121 188.429H86.4121ZM89.0722 200.383C90.8677 203.974 93.4631 206.836 96.8373 208.93L98.9468 205.532C96.2117 203.834 94.1198 201.534 92.6499 198.595L89.0722 200.383ZM96.8503 208.938C100.322 211.057 104.383 212.075 108.952 212.075V208.075C104.99 208.075 101.677 207.197 98.9338 205.524L96.8503 208.938ZM164.293 213.393L163.32 215.14L163.333 215.148L163.347 215.155L164.293 213.393ZM154.418 203.518L152.665 204.48L152.672 204.493L152.679 204.506L154.418 203.518ZM154.418 173.419L152.674 172.44L152.67 172.448L154.418 173.419ZM164.293 163.544L165.25 165.301L165.257 165.296L164.293 163.544ZM188.072 161.332L187.494 163.247L187.504 163.25L188.072 161.332ZM196.525 164.966L195.54 166.707L195.554 166.714L195.568 166.722L196.525 164.966ZM197.394 170.101L198.809 171.515L198.839 171.484L198.869 171.452L197.394 170.101ZM193.681 170.654L192.755 172.426L192.771 172.435L192.787 172.443L193.681 170.654ZM186.887 167.889L187.437 165.966L186.887 167.889ZM167.611 169.785L168.619 171.513L168.628 171.507L167.611 169.785ZM160.422 177.448L158.634 176.554L158.628 176.565L160.422 177.448ZM160.422 199.489L158.622 200.36L158.631 200.378L158.639 200.395L160.422 199.489ZM167.611 207.152L166.582 208.867L166.599 208.877L166.616 208.887L167.611 207.152ZM186.887 208.969L187.437 210.892V210.892L186.887 208.969ZM193.681 206.204L192.787 204.415L192.771 204.423L192.755 204.432L193.681 206.204ZM197.394 206.757L198.809 205.343V205.343L197.394 206.757ZM196.525 211.892L195.568 210.136L195.554 210.144L195.54 210.151L196.525 211.892ZM188.072 215.526L187.504 213.608L187.494 213.611L188.072 215.526ZM178.513 214.79C173.543 214.79 169.134 213.724 165.24 211.631L163.347 215.155C167.88 217.591 172.95 218.79 178.513 218.79V214.79ZM165.267 211.646C161.436 209.512 158.405 206.488 156.158 202.53L152.679 204.506C155.277 209.08 158.83 212.639 163.32 215.14L165.267 211.646ZM156.172 202.556C153.989 198.577 152.863 193.889 152.863 188.429H148.863C148.863 194.45 150.108 199.821 152.665 204.48L156.172 202.556ZM152.863 188.429C152.863 182.968 153.989 178.311 156.167 174.39L152.67 172.448C150.108 177.059 148.863 182.409 148.863 188.429H152.863ZM156.163 174.397C158.41 170.392 161.435 167.377 165.25 165.301L163.337 161.787C158.83 164.24 155.272 167.809 152.674 172.44L156.163 174.397ZM165.257 165.296C169.148 163.157 173.551 162.068 178.513 162.068V158.068C172.943 158.068 167.866 159.297 163.33 161.792L165.257 165.296ZM178.513 162.068C181.942 162.068 184.928 162.472 187.494 163.247L188.65 159.417C185.635 158.507 182.248 158.068 178.513 158.068V162.068ZM187.504 163.25C190.192 164.046 192.87 165.195 195.54 166.707L197.511 163.225C194.598 161.577 191.641 160.303 188.641 159.414L187.504 163.25ZM195.568 166.722C195.872 166.888 196.017 167.053 196.098 167.193C196.181 167.337 196.263 167.57 196.263 167.968H200.263C200.263 166.997 200.056 166.045 199.56 165.188C199.062 164.328 198.338 163.676 197.483 163.21L195.568 166.722ZM196.263 167.968C196.263 168.213 196.193 168.452 195.92 168.75L198.869 171.452C199.755 170.486 200.263 169.303 200.263 167.968H196.263ZM195.98 168.687C195.835 168.832 195.611 168.97 195.103 168.97V172.97C196.492 172.97 197.795 172.529 198.809 171.515L195.98 168.687ZM195.103 168.97C194.85 168.97 194.688 168.921 194.576 168.865L192.787 172.443C193.517 172.808 194.303 172.97 195.103 172.97V168.97ZM194.608 168.882C192.186 167.616 189.796 166.64 187.437 165.966L186.338 169.812C188.403 170.402 190.542 171.27 192.755 172.426L194.608 168.882ZM187.437 165.966C185.007 165.272 182.261 164.941 179.224 164.941V168.941C181.981 168.941 184.344 169.242 186.338 169.812L187.437 165.966ZM179.224 164.941C174.414 164.941 170.175 165.95 166.595 168.063L168.628 171.507C171.473 169.828 174.976 168.941 179.224 168.941V164.941ZM166.604 168.057C163.109 170.096 160.44 172.94 158.634 176.554L162.211 178.342C163.67 175.426 165.794 173.16 168.619 171.513L166.604 168.057ZM158.628 176.565C156.894 180.091 156.052 184.06 156.052 188.429H160.052C160.052 184.582 160.791 181.231 162.217 178.331L158.628 176.565ZM156.052 188.429C156.052 192.799 156.894 196.789 158.622 200.36L162.223 198.618C160.791 195.658 160.052 192.275 160.052 188.429H156.052ZM158.639 200.395C160.446 203.951 163.108 206.782 166.582 208.867L168.64 205.437C165.795 203.73 163.664 201.453 162.205 198.583L158.639 200.395ZM166.616 208.887C170.192 210.939 174.423 211.917 179.224 211.917V207.917C174.967 207.917 171.456 207.052 168.607 205.417L166.616 208.887ZM179.224 211.917C182.261 211.917 185.007 211.586 187.437 210.892L186.338 207.046C184.344 207.616 181.981 207.917 179.224 207.917V211.917ZM187.437 210.892C189.796 210.218 192.186 209.242 194.608 207.976L192.755 204.432C190.542 205.588 188.403 206.456 186.338 207.046L187.437 210.892ZM194.576 207.993C194.688 207.937 194.85 207.888 195.103 207.888V203.888C194.303 203.888 193.517 204.05 192.787 204.415L194.576 207.993ZM195.103 207.888C195.611 207.888 195.835 208.026 195.98 208.171L198.809 205.343C197.795 204.329 196.492 203.888 195.103 203.888V207.888ZM195.98 208.171C196.173 208.364 196.263 208.561 196.263 208.89H200.263C200.263 207.534 199.775 206.309 198.809 205.343L195.98 208.171ZM196.263 208.89C196.263 209.288 196.181 209.521 196.098 209.665C196.017 209.805 195.872 209.97 195.568 210.136L197.483 213.648C198.338 213.182 199.062 212.53 199.56 211.67C200.056 210.813 200.263 209.861 200.263 208.89H196.263ZM195.54 210.151C192.87 211.663 190.192 212.812 187.504 213.608L188.641 217.444C191.641 216.555 194.598 215.281 197.511 213.633L195.54 210.151ZM187.494 213.611C184.928 214.386 181.942 214.79 178.513 214.79V218.79C182.248 218.79 185.635 218.351 188.65 217.441L187.494 213.611ZM211.402 215.447L209.932 216.804L209.987 216.862L210.046 216.917L211.402 215.447ZM211.165 210.865L209.614 209.603L209.589 209.634L209.565 209.665L211.165 210.865ZM229.414 188.429L230.966 189.691L231.991 188.43L230.967 187.168L229.414 188.429ZM211.323 166.151L209.723 167.351L209.746 167.382L209.771 167.412L211.323 166.151ZM211.56 161.49L210.146 160.076V160.076L211.56 161.49ZM215.747 160.858L216.642 159.069L215.747 160.858ZM217.011 161.885L215.411 163.085L215.425 163.104L215.44 163.122L217.011 161.885ZM233.68 183.057L232.109 184.294L233.686 186.298L235.256 184.289L233.68 183.057ZM250.349 161.727L251.925 162.959L251.963 162.91L251.997 162.86L250.349 161.727ZM255.405 161.49L253.991 162.904L254.019 162.932L254.049 162.96L255.405 161.49ZM255.8 165.835L257.354 167.094L257.387 167.054L257.418 167.011L255.8 165.835ZM237.551 188.35L235.997 187.091L234.975 188.352L236 189.612L237.551 188.35ZM255.8 210.786L254.249 212.048L254.28 212.087L254.314 212.124L255.8 210.786ZM255.484 215.368L254.07 213.954L254.042 213.982L254.014 214.011L255.484 215.368ZM250.112 214.894L251.722 213.708L251.7 213.678L251.677 213.649L250.112 214.894ZM233.206 193.643L234.771 192.398L233.192 190.413L231.63 192.411L233.206 193.643ZM216.537 214.973L218.074 216.253L218.094 216.229L218.113 216.205L216.537 214.973ZM213.772 214.395C213.402 214.395 213.09 214.284 212.759 213.977L210.046 216.917C211.083 217.874 212.352 218.395 213.772 218.395V214.395ZM212.872 214.09C212.565 213.759 212.454 213.447 212.454 213.077H208.454C208.454 214.497 208.975 215.766 209.932 216.804L212.872 214.09ZM212.454 213.077C212.454 212.636 212.569 212.327 212.765 212.065L209.565 209.665C208.814 210.667 208.454 211.832 208.454 213.077H212.454ZM212.717 212.127L230.966 189.691L227.863 187.167L209.614 209.603L212.717 212.127ZM230.967 187.168L212.876 164.89L209.771 167.412L227.862 189.69L230.967 187.168ZM212.923 164.951C212.727 164.689 212.612 164.38 212.612 163.939H208.612C208.612 165.184 208.972 166.349 209.723 167.351L212.923 164.951ZM212.612 163.939C212.612 163.399 212.764 163.115 212.974 162.904L210.146 160.076C209.092 161.129 208.612 162.477 208.612 163.939H212.612ZM212.974 162.904C213.27 162.608 213.598 162.463 214.088 162.463V158.463C212.577 158.463 211.219 159.002 210.146 160.076L212.974 162.904ZM214.088 162.463C214.352 162.463 214.599 162.52 214.853 162.647L216.642 159.069C215.842 158.669 214.983 158.463 214.088 158.463V162.463ZM214.853 162.647C215.135 162.788 215.302 162.94 215.411 163.085L218.611 160.685C218.088 159.987 217.413 159.455 216.642 159.069L214.853 162.647ZM215.44 163.122L232.109 184.294L235.252 181.82L218.583 160.648L215.44 163.122ZM235.256 184.289L251.925 162.959L248.773 160.495L232.104 181.825L235.256 184.289ZM251.997 162.86C252.149 162.639 252.354 162.463 252.956 162.463V158.463C251.241 158.463 249.708 159.13 248.701 160.594L251.997 162.86ZM252.956 162.463C253.361 162.463 253.672 162.586 253.991 162.904L256.819 160.076C255.769 159.025 254.447 158.463 252.956 158.463V162.463ZM254.049 162.96C254.315 163.206 254.432 163.459 254.432 163.86H258.432C258.432 162.365 257.865 161.038 256.762 160.02L254.049 162.96ZM254.432 163.86C254.432 164.188 254.348 164.432 254.183 164.659L257.418 167.011C258.095 166.08 258.432 165.007 258.432 163.86H254.432ZM254.246 164.576L235.997 187.091L239.105 189.609L257.354 167.094L254.246 164.576ZM236 189.612L254.249 212.048L257.352 209.524L239.103 187.088L236 189.612ZM254.314 212.124C254.396 212.216 254.511 212.393 254.511 212.84H258.511C258.511 211.602 258.152 210.409 257.287 209.448L254.314 212.124ZM254.511 212.84C254.511 213.33 254.366 213.658 254.07 213.954L256.898 216.782C257.972 215.709 258.511 214.351 258.511 212.84H254.511ZM254.014 214.011C253.812 214.23 253.532 214.395 252.956 214.395V218.395C254.487 218.395 255.892 217.875 256.954 216.725L254.014 214.011ZM252.956 214.395C252.485 214.395 252.115 214.24 251.722 213.708L248.502 216.08C249.584 217.549 251.11 218.395 252.956 218.395V214.395ZM251.677 213.649L234.771 192.398L231.641 194.888L248.547 216.139L251.677 213.649ZM231.63 192.411L214.961 213.741L218.113 216.205L234.782 194.875L231.63 192.411ZM215.001 213.693C214.518 214.272 214.127 214.395 213.772 214.395V218.395C215.524 218.395 216.976 217.57 218.074 216.253L215.001 213.693Z" fill="white" mask="url(#path-13-outside-1_202_2)"/>
</g>
<defs>
<filter id="filter0_f_202_2" x="9" y="110" width="256" height="162" filterUnits="userSpaceOnUse" color-interpolation-filters="sRGB">
<feFlood flood-opacity="0" result="BackgroundImageFix"/>
<feBlend mode="normal" in="SourceGraphic" in2="BackgroundImageFix" result="shape"/>
<feGaussianBlur stdDeviation="19.5" result="effect1_foregroundBlur_202_2"/>
</filter>
<filter id="filter1_d_202_2" x="147" y="-24" width="152" height="152" filterUnits="userSpaceOnUse" color-interpolation-filters="sRGB">
<feFlood flood-opacity="0" result="BackgroundImageFix"/>
<feColorMatrix in="SourceAlpha" type="matrix" values="0 0 0 0 0 0 0 0 0 0 0 0 0 0 0 0 0 0 127 0" result="hardAlpha"/>
<feOffset dx="2" dy="1"/>
<feGaussianBlur stdDeviation="12.5"/>
<feColorMatrix type="matrix" values="0 0 0 0 0 0 0 0 0 0 0 0 0 0 0 0 0 0 0.33 0"/>
<feBlend mode="normal" in2="BackgroundImageFix" result="effect1_dropShadow_202_2"/>
<feBlend mode="normal" in="SourceGraphic" in2="effect1_dropShadow_202_2" result="shape"/>
</filter>
<linearGradient id="paint0_linear_202_2" x1="136" y1="0" x2="136" y2="308" gradientUnits="userSpaceOnUse">
<stop stop-color="#FF7979"/>
<stop offset="1" stop-color="#E85555"/>
</linearGradient>
<linearGradient id="paint1_linear_202_2" x1="136" y1="0" x2="136" y2="308" gradientUnits="userSpaceOnUse">
<stop stop-color="#0095FF"/>
<stop offset="1" stop-color="#055E8E"/>
</linearGradient>
<linearGradient id="paint2_linear_202_2" x1="136" y1="0" x2="136" y2="308" gradientUnits="userSpaceOnUse">
<stop stop-color="#6ABDF8"/>
<stop offset="1" stop-color="#008BD6"/>
</linearGradient>
<linearGradient id="paint3_linear_202_2" x1="1.72772" y1="-5.12887" x2="69.5069" y2="174.758" gradientUnits="userSpaceOnUse">
<stop stop-color="white" stop-opacity="0"/>
<stop offset="1" stop-color="white"/>
</linearGradient>
<linearGradient id="paint4_linear_202_2" x1="-4.29868" y1="-7.87801" x2="38.1204" y2="104.989" gradientUnits="userSpaceOnUse">
<stop stop-color="white" stop-opacity="0"/>
<stop offset="1" stop-color="white"/>
</linearGradient>
<linearGradient id="paint5_linear_202_2" x1="221" y1="0" x2="221" y2="102" gradientUnits="userSpaceOnUse">
<stop stop-color="#0085FF"/>
<stop offset="1" stop-color="#0090CE"/>
</linearGradient>
</defs>
</svg>
