<svg width="24" height="24" viewBox="0 0 24 24" fill="none" xmlns="http://www.w3.org/2000/svg">
<path fill-rule="evenodd" clip-rule="evenodd" d="M12 4H13.4286C15.9899 4 16.7605 4.02829 17.3211 4.22447C18.4701 4.62651 19.3735 5.5299 19.7755 6.67888C19.9717 7.23952 20 8.01013 20 10.5714C20 10.7392 19.9999 10.9016 19.9998 11.0587C17.6331 10.7834 15.4346 11.4927 13.9246 13.0814C12.3708 14.716 11.6806 17.1367 12.1416 19.9961C11.6782 19.9991 11.1582 20 10.5714 20C8.01013 20 7.23952 19.9717 6.67888 19.7755C5.5299 19.3735 4.62651 18.4701 4.22447 17.3211C4.02829 16.7605 4 15.9899 4 13.4286V12C4 10.094 4.00192 8.79815 4.09232 7.80072C4.18023 6.83078 4.33901 6.34102 4.5359 6C4.88697 5.39192 5.39192 4.88697 6 4.5359C6.34102 4.33901 6.83078 4.18023 7.80072 4.09232C8.79815 4.00192 10.094 4 12 4ZM14.1633 19.9496C15.0107 19.9045 15.5335 19.8201 15.9817 19.6633C17.7052 19.0602 19.0602 17.7052 19.6633 15.9817C19.8783 15.3672 19.9572 14.6125 19.9852 13.0734C18.0633 12.7866 16.4274 13.3512 15.3742 14.4593C14.2985 15.5909 13.6861 17.4446 14.1633 19.9496ZM2 12C2 8.26154 2 6.3923 2.80385 5C3.33046 4.08788 4.08788 3.33046 5 2.80385C6.3923 2 8.26154 2 12 2H13.4286C15.8225 2 17.0194 2 17.9817 2.3367C19.7052 2.93977 21.0602 4.29484 21.6633 6.01833C22 6.98056 22 8.17752 22 10.5714C22 13.7633 22 15.3593 21.5511 16.6422C20.747 18.9402 18.9402 20.747 16.6422 21.5511C15.3593 22 13.7633 22 10.5714 22C8.17752 22 6.98056 22 6.01833 21.6633C4.29484 21.0602 2.93977 19.7052 2.3367 17.9817C2 17.0194 2 15.8225 2 13.4286V12Z" fill="#F2F4F7"/>
</svg>
