<svg width="24" height="24" viewBox="0 0 24 24" fill="none" xmlns="http://www.w3.org/2000/svg">
<path fill-rule="evenodd" clip-rule="evenodd" d="M21.3486 2.20937C21.9853 2.61021 22.177 3.45201 21.7767 4.08958L20.6238 3.3638C21.7767 4.08958 21.7763 4.09009 21.776 4.0906L21.7754 4.09164L21.774 4.09375L21.7712 4.09817L21.7651 4.10776L21.7505 4.12983C21.7399 4.1458 21.7272 4.16425 21.7124 4.18492C21.6829 4.2262 21.645 4.27656 21.5981 4.33362C21.5045 4.44748 21.3737 4.58996 21.2015 4.7409C20.8554 5.04434 20.341 5.3824 19.6362 5.58404C18.5687 5.88946 17.4363 5.83178 16.441 5.6861C15.617 5.56552 14.7774 5.36519 14.0549 5.19279C13.9042 5.15682 13.7585 5.12207 13.6192 5.0895C13.2463 5.00239 12.93 4.93427 12.6627 4.88608C12.7236 4.93168 12.7886 4.97909 12.858 5.02831C13.5489 5.51887 14.4401 6.03664 15.4422 6.61883C15.7266 6.78405 16.0199 6.95446 16.3201 7.1309C17.6196 7.89469 19.033 8.76439 20.0954 9.70918C21.0921 10.5955 22.1792 11.8974 21.9751 13.5328C21.9208 13.9673 21.7597 14.4318 21.4029 14.8159C21.0431 15.2033 20.595 15.3897 20.1833 15.4633C19.441 15.5961 18.6369 15.3951 17.983 15.1743C16.6763 14.7331 15.0255 13.864 13.4624 13.041C13.3876 13.0016 13.3129 12.9622 13.2385 12.9231C11.5358 12.0272 9.92309 11.1909 8.6358 10.7569C8.0748 10.5678 7.67297 10.4902 7.40987 10.4807C7.50716 10.596 7.66666 10.7523 7.91871 10.9453C8.74467 11.5778 10.0537 12.2301 11.5488 12.921C11.8248 13.0486 12.1077 13.1777 12.3927 13.3077C13.5732 13.8465 14.7909 14.4022 15.7173 14.9392C16.2858 15.2688 16.8697 15.6599 17.286 16.1207C17.6996 16.5785 18.2016 17.4175 17.803 18.4155C17.4228 19.3672 16.5323 19.6678 15.9456 19.7617C15.3377 19.859 14.6433 19.8128 13.9922 19.7308C13.1537 19.6253 12.1289 19.4196 11.1151 19.2162C10.5776 19.1084 10.0433 19.0011 9.54143 18.9098C7.97189 18.624 6.63425 18.4721 5.70347 18.6172C5.25572 18.687 5.03243 18.8079 4.92825 18.899C4.85803 18.9604 4.76042 19.0732 4.7315 19.395C4.72392 19.4793 4.7215 19.7443 4.72552 20.0634C4.72733 20.2067 4.73005 20.3406 4.73233 20.4389L4.73522 20.5552L4.73608 20.5864L4.73635 20.5959C4.75844 21.3487 4.16697 21.9773 3.41524 21.9994C2.6635 22.0215 2.03616 21.4292 2.01405 20.6765L2.01367 20.6631L2.01271 20.6279L2.00959 20.5023C2.00715 20.3974 2.00422 20.2535 2.00226 20.0979C1.99875 19.8192 1.99634 19.4024 2.01898 19.1506C2.1024 18.2223 2.47204 17.426 3.13703 16.8446C3.76806 16.2929 4.54794 16.0373 5.2844 15.9224C6.72204 15.6982 8.47693 15.944 10.0286 16.2265C10.6554 16.3406 11.2483 16.4601 11.8078 16.5729C12.4746 16.7073 13.094 16.8322 13.6669 16.9269C12.9871 16.5773 12.1899 16.2131 11.3312 15.8209C11.0301 15.6833 10.7214 15.5423 10.4075 15.3973C8.95217 14.7247 7.36751 13.9565 6.26433 13.1117C5.7175 12.693 5.1576 12.1593 4.83619 11.4908C4.47279 10.735 4.44993 9.86806 4.91625 9.05085C5.44073 8.13171 6.33718 7.79874 7.15678 7.75733C7.92203 7.71867 8.74431 7.91581 9.50481 8.17221C11.0403 8.68989 12.8603 9.64333 14.5053 10.5088L14.5851 10.5508C16.2717 11.4383 17.7574 12.2201 18.8531 12.59C18.9442 12.6207 19.0288 12.6473 19.1071 12.6699C18.9667 12.436 18.7175 12.1313 18.2869 11.7484C17.4486 11.0028 16.252 10.2532 14.9415 9.48292C14.681 9.32985 14.4145 9.17511 14.1466 9.01956C13.1264 8.4273 12.0856 7.82311 11.2828 7.25316C10.775 6.89267 10.2697 6.48331 9.89944 6.02823C9.54348 5.59077 9.12799 4.87883 9.30243 4.00545C9.41714 3.43113 9.71112 2.90732 10.2203 2.54554C10.6914 2.21082 11.2184 2.10703 11.6471 2.08086C12.4621 2.0311 13.4261 2.24389 14.238 2.4336C14.4023 2.47197 14.5651 2.51074 14.7268 2.54923C15.4461 2.72046 16.1423 2.88617 16.8348 2.98752C17.6834 3.11172 18.3668 3.11085 18.888 2.96172C19.1474 2.88751 19.3139 2.77104 19.4075 2.6889C19.4553 2.64705 19.4841 2.61398 19.4952 2.60049C19.4956 2.60005 19.4959 2.59965 19.4962 2.59926C19.9058 1.99281 20.725 1.81678 21.3486 2.20937ZM11.9473 4.21597C11.9476 4.21602 11.9497 4.21947 11.9527 4.22616C11.9486 4.21926 11.947 4.21591 11.9473 4.21597Z" fill="#F2F4F7"/>
</svg>
